<?xml version="1.0" encoding="UTF-8" standalone="no"?>
<svg
   version="1.0"
   viewBox="535 125 330 330"
   preserveAspectRatio="xMidYMid meet"
   xmlns="http://www.w3.org/2000/svg">
  <!-- Arrow/negative space — transparent to let dark background show through -->
  <g fill="none">
    <path d="m 724.3,418.8 c 16.1,-10.5 47,-30.8 68.7,-45.1 21.7,-14.3 41.9,-27.5 44.8,-29.4 l 5.2,-3.4 v -84.2 l -0.1,-84.2 -9.7,-5.4 c -5.3,-3 -16.9,-9.7 -25.7,-14.9 -8.8,-5.2 -16.5,-9.6 -17.2,-9.9 -1.3,-0.5 -14,9.8 -74.6,60.7 -35.6,29.8 -45.6,38.1 -59.4,49.5 -2.6,2.2 -15,12.7 -27.6,23.3 -20,16.8 -23.2,19.2 -26.2,19.2 H 599 V 251.5 208 h 3.3 c 2.7,0.1 6.1,2.5 20.7,15 9.6,8.2 17.8,15 18.2,15 0.5,0 32.2,-26.3 36.6,-30.5 1.1,-1 -6.1,-7.4 -37.3,-33.4 -25.4,-21.1 -39.2,-32 -40.2,-31.7 -0.8,0.4 -13.2,7.5 -27.4,15.9 L 547,173.5 v 83.7 83.6 l 6.3,4 c 3.4,2.2 14.3,9.2 24.1,15.5 l 18,11.6 2.5,-1.9 c 1.4,-1 11.8,-9.4 23.2,-18.7 11.3,-9.2 34.2,-27.8 50.9,-41.3 16.6,-13.5 32,-25.9 34.2,-27.7 l 3.8,-3.1 -8,-5.4 c -7.7,-5 -8.1,-5.4 -7.8,-8.6 l 0.3,-3.3 43.9,-21.5 C 777.1,221.6 783,219 787.2,219 h 4.8 v 56.5 56.5 h -3.4 c -2.1,0 -4.5,-0.9 -6.3,-2.3 -1.5,-1.3 -6.7,-5.3 -11.4,-9 l -8.6,-6.7 -5.1,6.8 c -10.3,13.8 -37.6,41.3 -52.4,52.8 -8.5,6.6 -8.8,6.5 -30.9,-8.1 -10.4,-6.9 -19.5,-12.8 -20.2,-13 -1,-0.4 -38.8,29.6 -39.4,31.3 -0.2,0.5 79.1,53.8 80.5,54.1 0.2,0.1 13.5,-8.5 29.5,-19.1 z"/>
  </g>
  <!-- Body shapes — white for dark backgrounds -->
  <g fill="#ffffff">
    <path d="M682.8 434.8 c-59.8 -39.4 -75.7 -50.1 -75.2 -50.9 1.6 -2.6 44.9 -36.9 46 -36.5 0.7 0.3 10.6 6.6 21.8 14.1 l20.6 13.6 5.7 -4.4 c15.5 -12 43.5 -40.5 53.6 -54.4 2.9 -4 5.7 -7.2 6.3 -7.3 0.6 0 6.5 4.2 13 9.3 6.5 5.1 12.5 9.6 13.2 10.1 0.9 0.6 1.2 -10.3 1.2 -52.8 0 -47 -0.2 -53.6 -1.5 -53.6 -0.9 0 -1.5 -0.9 -1.5 -2.4 0 -2 4.4 -6.4 20.7 -20.8 11.5 -10.1 23.9 -21.3 27.8 -24.9 6.2 -5.9 7.3 -6.5 9.3 -5.6 l2.2 1 0 87.2 0 87.3 -19.2 12.7 c-57.7 37.9 -118.2 77.7 -124.5 81.8 l-7.2 4.6 -12.3 -8.1z"/>
    <path d="M550.3 347.9 l-6.3 -4.1 0 -86.6 0 -86.7 28.7 -16.9 c23.7 -13.9 28.9 -16.7 30.4 -15.8 3.1 1.9 81.4 67.4 81.7 68.4 0.2 0.5 -0.7 1.7 -2 2.7 -1.2 1.1 -10.8 9.1 -21.3 18 -10.4 8.8 -19.5 16.1 -20.1 16.1 -1 0 -11.5 -8.6 -34.3 -27.8 l-5.1 -4.4 0 40.7 0 40.7 2.5 -1.6 2.5 -1.6 0 3.5 c0 1.9 -0.5 3.5 -1 3.5 -0.6 0 -5.9 4.4 -11.9 9.8 -5.9 5.3 -17.7 15.7 -26.1 23.1 l-15.3 13.5 2.7 2.1 c2.4 1.9 3.8 7.6 1.9 7.4 -0.5 0 -3.6 -1.8 -7 -4z"/>
  </g>
  <!-- Accent layer — slightly lighter white for dimensional depth -->
  <g fill="rgba(255,255,255,0.85)">
    <path d="M576.1 364.4 c-10.7 -6.9 -20.4 -13.5 -21.6 -14.7 -1.1 -1.2 -3.4 -3.2 -5.1 -4.3 l-2.9 -2.2 3 -3.2 c1.7 -1.7 9.3 -8.6 16.9 -15.3 24.3 -21.3 35.4 -31.5 34.8 -32.2 -0.4 -0.3 0.2 -0.3 1.3 0.1 1.1 0.4 1.7 0.4 1.3 0 -0.5 -0.7 22.9 -21 49.5 -43.1 13.8 -11.4 23.8 -19.7 59.4 -49.5 47.1 -39.5 72.3 -60.4 75 -62 1.7 -1.1 3.8 -0.1 17.9 8.2 8.7 5.3 21.2 12.6 27.8 16.4 l11.9 6.8 -7.4 7.1 c-4.1 3.8 -16.7 15.3 -28.1 25.3 -11.5 10.1 -20.8 18.7 -20.8 19.3 0 0.5 -0.8 0.9 -1.7 0.9 -1.6 0 -87.6 41.3 -89.6 43 -0.4 0.3 3.8 3.6 9.4 7.2 l10 6.6 -6.8 5.5 c-3.7 3.1 -24.3 19.8 -45.8 37.2 -21.4 17.4 -45.6 37 -53.7 43.6 -8.1 6.5 -14.8 11.9 -15 11.9 -0.2 0 -9 -5.7 -19.7 -12.6z"/>
  </g>
</svg>
