<?xml version="1.0" encoding="utf-8"?>
<!DOCTYPE svg PUBLIC "-//W3C//DTD SVG 1.0//EN" "http://www.w3.org/TR/2001/REC-SVG-20010904/DTD/svg10.dtd">
<svg version="1.0" xmlns="http://www.w3.org/2000/svg" width="1376px" height="768px" viewBox="0 0 1376 768" preserveAspectRatio="xMidYMid meet">
 <g fill="#fdfdfd">
  <path d="M0 384 l0 -384 688 0 688 0 0 384 0 384 -688 0 -688 0 0 -384z m419.3 196.8 c-2.2 -5.8 -2.3 -5.8 -2.3 -0.5 0 4 0.3 4.7 2 4.7 1.9 0 1.9 -0.1 0.3 -4.2z m19.7 0.2 c0 -4.9 -0.7 -5 -2.6 -0.5 -1.8 4.4 -1.8 4.5 0.6 4.5 1.7 0 2 -0.7 2 -4z m-69 -56.1 l0 -18 4.2 0.3 4.2 0.3 6.4 17.3 c5.8 15.3 6.7 17.2 8.7 17.2 2 0 3 -1.8 8.3 -16.2 3.3 -9 6.3 -17.3 6.7 -18.5 0.5 -1.9 1.4 -2.3 4.5 -2.3 l4 0 0.2 18.8 0.3 18.7 3 0 3 0 0.3 -28.2 0.2 -28.3 -5.9 0 c-4.7 0 -6 0.4 -6.6 1.8 -0.3 0.9 -3.5 9.6 -7 19.2 -3.5 9.6 -6.6 18.3 -7 19.3 -0.5 1.1 -1.8 1.7 -4 1.7 -2.6 0 -3.5 -0.5 -4.3 -2.7 -0.6 -1.6 -3.9 -10.2 -7.2 -19.2 -3.3 -9 -6.5 -17.2 -7.1 -18.2 -0.8 -1.5 -2.1 -1.9 -6.4 -1.9 l-5.5 0 0 27.8 c0 15.3 0.3 28.2 0.7 28.5 0.3 0.4 1.9 0.7 3.5 0.7 l2.8 0 0 -18.1z m76.1 11.1 l2.3 -7 14.8 0 c8.8 0 14.8 0.4 14.8 1 0 0.5 0.9 3.4 2.1 6.5 1.8 4.9 2.3 5.5 4.9 5.5 l2.9 0 -4.5 -12.7 c-2.5 -7.1 -6.9 -19.5 -9.8 -27.8 -5.6 -16.4 -5.7 -16.5 -13.2 -15.1 -3.1 0.6 -3.4 1.1 -6.5 10.4 -1.7 5.3 -6 17.7 -9.5 27.5 -3.5 9.8 -6.4 18.1 -6.4 18.3 0 0.2 1.3 0.4 2.9 0.4 2.8 0 3.1 -0.4 5.2 -7z m85.3 5.8 c4.6 -1.4 14.6 -10.4 14.6 -13.1 0 -3 -4.7 -2.1 -6.5 1.2 -2.9 5.6 -5.9 7.1 -14.7 7.1 -9.6 0 -13 -1.5 -16 -7.3 -1.9 -3.6 -2.2 -5.8 -2.3 -15.2 0 -12.3 1.6 -17.1 6.8 -20.9 3.4 -2.5 15.2 -3.5 19.7 -1.6 3.3 1.4 7 5.8 7 8.4 0 1.1 0.9 1.6 3 1.6 3.9 0 3.9 -1.7 -0.2 -7.1 -8.2 -10.6 -23.9 -11.9 -34.2 -2.8 -5.6 5 -8.5 10.9 -9.3 19.1 -1.1 11.8 4.3 23.5 12.9 27.9 8 4.1 12.4 4.7 19.2 2.7z m37.6 -10.3 l0 -11.5 7.8 0 7.8 0 4.9 10.1 c5.4 11 5.7 11.3 9.7 12.3 2.7 0.6 2.7 0.6 -2.3 -8.6 -6 -11.4 -6.2 -14.3 -1.3 -18.2 9.6 -7.6 8.1 -20.8 -3.1 -26.5 -4.4 -2.3 -6.4 -2.6 -17.7 -3 l-12.8 -0.3 0 28.6 0 28.6 3.5 0 3.5 0 0 -11.5z m84.2 7.8 c19.2 -10.5 17.8 -42.6 -2.4 -51.3 -4.2 -1.8 -6.4 -2.1 -11.6 -1.7 -19 1.5 -29.6 22.6 -20.7 41.2 6.7 14 21.4 19 34.7 11.8z m62.6 1.3 c4.8 -2.5 7.6 -5 10.7 -9.8 1.7 -2.8 1.7 -2.8 -0.8 -2.8 -1.8 0 -3.1 1 -4.6 3.5 -2.7 4.6 -7.3 6.5 -15.3 6.5 -8.3 0 -12.5 -2.3 -15.7 -8.4 -2.1 -4.1 -2.4 -6.1 -2.5 -14.9 0 -9 0.3 -10.9 2.4 -15.2 3.7 -7.4 6.6 -9 15.9 -9 8.8 0 12 1.5 15.3 7.1 1.4 2.4 2.7 3.4 4.5 3.4 2.5 0 2.5 0 0.8 -2.7 -7.6 -12 -19.9 -15.6 -31.6 -9.5 -10.2 5.3 -16.4 18.8 -14 30.3 3.9 18.5 20.6 28.8 34.9 21.5z m61 -0.3 c0.3 -2.2 0.1 -2.2 -13.5 -2.5 l-13.8 -0.3 -0.3 -25.7 -0.2 -25.8 -2.5 0 c-1.3 0 -2.6 0.4 -2.9 0.9 -0.3 0.4 -0.3 13.3 0.1 28.5 l0.6 27.6 16.1 -0.2 c15.8 -0.3 16.1 -0.3 16.4 -2.5z m18.1 -3.5 c1.2 -3.5 2.5 -6.9 2.9 -7.6 0.7 -0.9 4.4 -1.2 15.2 -1 l14.3 0.3 2.5 7.3 c2.1 6.4 2.6 7.2 4.9 7.2 2 0 2.4 -0.4 1.8 -1.7 -0.4 -1 -5.2 -13.8 -10.7 -28.5 -9.6 -25.7 -10.2 -26.8 -12.7 -26.8 -1.4 0 -3.1 0.4 -3.8 0.8 -0.6 0.4 -4.1 8.8 -7.6 18.7 -3.6 9.9 -8.1 22.4 -10 27.8 l-3.6 9.7 2.4 0 c2 0 2.6 -0.9 4.4 -6.2z m62.1 -5.3 l0 -11.5 8 0 7.9 0 2.5 4.3 c1.3 2.3 3.9 7.2 5.7 10.9 3 6 6 9 7.6 7.4 0.3 -0.3 -1.5 -4.3 -4.1 -9 -5.9 -11.1 -6.1 -14.3 -0.7 -19.4 8.6 -8.2 6.7 -19.7 -4.2 -25.4 -3.4 -1.8 -6.4 -2.2 -16.4 -2.6 l-12.3 -0.4 0 28.6 0 28.6 3 0 3 0 0 -11.5z m54 -17 l0 -28.5 -3 0 -3 0 0 28.5 0 28.5 3 0 3 0 0 -28.5z m38.1 5.8 c-0.1 -12.3 0.1 -23.8 0.5 -25.8 l0.6 -3.5 8.4 0 c8.3 0 8.4 0 8.4 -2.5 l0 -2.5 -21 0 -21 0 0 2.5 c0 2.5 0.1 2.5 9 2.5 l9 0 0 25.3 c0 14 0.3 25.7 0.7 26.1 0.4 0.4 1.8 0.6 3.1 0.4 l2.4 -0.3 -0.1 -22.2z m54.9 10.9 l0 -11.9 9 -16.3 c5 -9 9 -16.5 9 -16.7 0 -0.1 -0.9 -0.3 -1.9 -0.3 -1.5 0 -3.6 3.2 -8.8 13 -6.8 12.9 -6.8 13 -10.3 13 -3.5 0 -3.6 -0.2 -10.5 -13 -4.9 -9.3 -7.4 -13 -8.7 -13 -1 0 -1.8 0.3 -1.8 0.7 0 0.3 3.1 6.1 6.9 12.7 11.5 20.3 11.1 19.1 11.1 31.4 0 6 0.3 11.2 0.7 11.5 0.3 0.4 1.7 0.7 3 0.7 2.3 0 2.3 -0.1 2.3 -11.8z m-279.7 -112.4 c16.1 -10.5 47 -30.8 68.7 -45.1 21.7 -14.3 41.9 -27.5 44.8 -29.4 l5.2 -3.4 0 -84.2 -0.1 -84.2 -9.7 -5.4 c-5.3 -3 -16.9 -9.7 -25.7 -14.9 -8.8 -5.2 -16.5 -9.6 -17.2 -9.9 -1.3 -0.5 -14 9.8 -74.6 60.7 -35.6 29.8 -45.6 38.1 -59.4 49.5 -2.6 2.2 -15 12.7 -27.6 23.3 -20 16.8 -23.2 19.2 -26.2 19.2 l-3.5 0 0 -43.5 0 -43.5 3.3 0 c2.7 0.1 6.1 2.5 20.7 15 9.6 8.2 17.8 15 18.2 15 0.5 0 32.2 -26.3 36.6 -30.5 1.1 -1 -6.1 -7.4 -37.3 -33.4 -25.4 -21.1 -39.2 -32 -40.2 -31.7 -0.8 0.4 -13.2 7.5 -27.4 15.9 l-25.9 15.2 0 83.7 0 83.6 6.3 4 c3.4 2.2 14.3 9.2 24.1 15.5 l18 11.6 2.5 -1.9 c1.4 -1 11.8 -9.4 23.2 -18.7 11.3 -9.2 34.2 -27.8 50.9 -41.3 16.6 -13.5 32 -25.9 34.2 -27.7 l3.8 -3.1 -8 -5.4 c-7.7 -5 -8.1 -5.4 -7.8 -8.6 l0.3 -3.3 43.9 -21.5 c38.7 -18.8 44.6 -21.4 48.8 -21.4 l4.8 0 0 56.5 0 56.5 -3.4 0 c-2.1 0 -4.5 -0.9 -6.3 -2.3 -1.5 -1.3 -6.7 -5.3 -11.4 -9 l-8.6 -6.7 -5.1 6.8 c-10.3 13.8 -37.6 41.3 -52.4 52.8 -8.5 6.6 -8.8 6.5 -30.9 -8.1 -10.4 -6.9 -19.5 -12.8 -20.2 -13 -1 -0.4 -38.8 29.6 -39.4 31.3 -0.2 0.5 79.1 53.8 80.5 54.1 0.2 0.1 13.5 -8.5 29.5 -19.1z"/>
  <path d="M453 519.9 c0 -2.3 1.4 -8.6 3.1 -14 l3.2 -9.9 3.6 0 3.6 0 3.3 10.3 c1.8 5.6 3.2 11.9 3.2 14 l0 3.7 -10 0 -10 0 0 -4.1z"/>
  <path d="M569.2 503.8 l0.3 -11.3 10.3 -0.3 c9.7 -0.3 10.3 -0.2 12.7 2.2 2.2 2.2 2.5 3.4 2.5 9.1 0 5.7 -0.3 6.9 -2.5 9 -2.3 2.3 -3.1 2.5 -13 2.5 l-10.6 0 0.3 -11.2z"/>
  <path d="M630.2 535 c-5.3 -3.3 -7.2 -8.6 -7.2 -21 0 -9 0.3 -11.2 2.3 -15 2.9 -5.8 7.2 -8 15.7 -8 8.5 0 12.7 2.1 16 8 2.2 4 2.5 5.6 2.5 15.5 0 12.2 -1 15.2 -6.5 19.9 -2.8 2.3 -4 2.6 -11.3 2.6 -6.5 0 -8.9 -0.4 -11.5 -2z"/>
  <path d="M802 520.3 c0 -2.1 1.5 -8.3 3.4 -13.8 l3.3 -10 3.6 -0.3 3.5 -0.3 3.7 11 c2 6.1 3.5 12.3 3.3 13.8 l-0.3 2.8 -10.2 0.3 -10.3 0.3 0 -3.8z"/>
  <path d="M857 503.6 c0 -13.2 -0.5 -12.6 10.3 -12.5 13.5 0.1 17.1 2.9 16.4 13.1 -0.2 4.4 -0.9 6.4 -2.7 8.3 -2.2 2.4 -2.9 2.5 -13.2 2.5 l-10.8 0 0 -11.4z"/>
 </g>
 <g fill="#09264c">
  <path d="M911 610.1 c0 -0.5 1.4 -1.9 3 -3.1 1.9 -1.3 3 -3 3 -4.4 0 -2.7 -4.4 -15 -6.5 -18.2 -1.8 -2.8 -1.1 -3.4 3.8 -3.4 3.6 0 3.9 0.2 3.3 2.3 -0.6 2.4 2.3 11.3 3.4 10 0.3 -0.4 1.3 -2.8 2 -5.2 1.1 -3.5 1.2 -4.5 0.2 -4.9 -0.7 -0.2 -1.2 -1 -1.2 -1.8 0 -1 1.3 -1.4 4.5 -1.4 4.8 0 5.2 0.5 3.2 3.5 -0.8 1.1 -3.1 6.9 -5.2 13 -2.2 6 -4.7 11.7 -5.7 12.7 -1.9 1.9 -7.8 2.5 -7.8 0.9z"/>
  <path d="M475.1 602.1 c-6.4 -1.7 -9 -13.4 -4.1 -18.6 1.9 -2 3.3 -2.5 7.5 -2.5 5.4 0 7.5 1.2 7.5 4.2 0 2.8 -2.9 3.4 -4.6 0.9 -1.9 -2.7 -3.9 -2.7 -5.8 0.1 -1.9 2.7 -2 5.8 -0.4 9.4 1.1 2.4 1.5 2.6 6 2 5.1 -0.7 6 0.1 3.1 2.6 -2.3 1.9 -6.1 2.7 -9.2 1.9z"/>
  <path d="M512 602.3 c-0.8 -0.3 -2.7 -1.7 -4.2 -3.1 -2.4 -2.2 -2.8 -3.4 -2.8 -7.8 0 -7.1 2.7 -10.4 9.2 -11.1 4.2 -0.5 5 -0.3 7.8 2.5 2.5 2.6 3 3.8 3 8.1 0 4.1 -0.5 5.6 -2.7 8.1 -2.8 3 -7.4 4.5 -10.3 3.3z m6.8 -7.5 c1 -4.1 0.2 -8.8 -1.9 -10.1 -4.2 -2.6 -7.8 3.2 -5.9 9.6 0.9 3.2 1.5 3.7 4 3.7 2.5 0 3.1 -0.5 3.8 -3.2z"/>
  <path d="M647.2 601.5 c-6.8 -3 -8 -13.5 -2.2 -18.7 4.8 -4.4 14 -3.3 14 1.6 0 3.5 -1.8 4.2 -4.4 1.7 -2.7 -2.6 -3.8 -2.6 -5.9 -0.3 -2.1 2.3 -2.2 7.1 -0.1 10 1.6 2.3 5.8 3 6.9 1.2 0.3 -0.5 1.5 -1 2.7 -1 1.4 0 1.8 0.5 1.4 1.6 -0.3 0.9 -0.6 1.7 -0.6 2 0 0.6 -5.8 3.4 -7.2 3.4 -0.7 -0.1 -2.8 -0.7 -4.6 -1.5z"/>
  <path d="M668 601.6 c-7.4 -2.4 -9.1 -13.8 -2.8 -19.1 6.2 -5.2 14.8 -1.7 14.8 6 l0 3.5 -6.5 0 c-3.6 0 -6.5 0.3 -6.5 0.8 0 0.4 0.7 1.8 1.6 3 1.7 2.4 4.4 2.8 7.6 1.1 2.8 -1.5 4.9 0.5 2.7 2.6 -2.4 2.5 -7.1 3.4 -10.9 2.1z m7 -13.9 c0 -1.6 -2 -3.7 -3.6 -3.7 -1.8 0 -4.5 3 -3.9 4.1 0.9 1.4 7.5 1.1 7.5 -0.4z"/>
  <path d="M792.2 601.4 c-5.3 -2.7 -6 -11.6 -1.2 -14.6 1.5 -1 1.6 -1.4 0.4 -3.7 -3.2 -6.1 0 -10.4 7.4 -9.9 4 0.3 4.8 0.7 5.6 3 1 2.7 0.3 5 -2.6 9 -1 1.4 -0.9 2.1 0.6 3.7 2.6 2.8 3.3 2.6 4.1 -0.9 0.5 -2.5 1.1 -3 3.6 -3 3.5 0 3.6 0.8 0.8 6.2 l-2.1 4.2 2.1 1.7 c1.2 1 2.7 1.9 3.3 2.1 0.6 0.2 0.8 1 0.4 1.6 -0.9 1.5 -5.8 1.6 -7.3 0.1 -0.9 -0.9 -2.2 -0.8 -5.3 0.5 -5 2 -5.7 2 -9.8 0z m9.3 -4.4 c0.7 -1.2 -4.2 -7.5 -5.8 -7.5 -2.1 0 -3.1 3.3 -1.9 5.9 0.9 1.9 1.9 2.6 4.1 2.6 1.6 0 3.3 -0.5 3.6 -1z m-2 -17.6 c0 -1.9 -0.6 -3 -1.6 -3.2 -2.1 -0.4 -3.2 2.4 -1.8 4.9 1.4 2.8 3.4 1.8 3.4 -1.7z"/>
  <path d="M966.4 602 c-5.6 -1.3 -6.4 -2.3 -3.9 -5.6 1.4 -1.9 1.4 -1.9 3 0.4 1.9 2.6 5.8 2.7 6.3 0 0.2 -1.1 -1.1 -2.3 -4.2 -3.6 -4.1 -1.9 -6.6 -4.5 -6.6 -7.2 0 -0.6 1.1 -2.2 2.5 -3.5 3.9 -4 12.5 -2.9 12.5 1.5 0 2.7 -2.1 3.6 -3.6 1.6 -1.4 -1.9 -4.5 -1.8 -5.2 0.1 -0.2 0.8 1.5 2.1 4.1 3.2 5.9 2.6 7.5 6.8 4 10.9 -2.2 2.5 -4.9 3.2 -8.9 2.2z"/>
  <path d="M411 600.6 c0 -0.8 0.7 -1.6 1.5 -2 1.2 -0.4 1.5 -2.6 1.5 -11 0 -8.3 -0.3 -10.5 -1.5 -11 -0.8 -0.3 -1.5 -1.2 -1.5 -2.1 0 -1.1 1.2 -1.5 4.8 -1.5 l4.8 0 3.4 9.5 c1.9 5.2 3.7 9.2 4.1 8.8 0.4 -0.5 1.9 -4.2 3.4 -8.3 1.4 -4.1 3.1 -8 3.7 -8.7 0.6 -0.7 3 -1.3 5.4 -1.3 3.7 0 4.4 0.3 4.4 2 0 1.1 -0.7 2 -1.5 2 -1.2 0 -1.5 1.8 -1.5 10.5 0 8.5 0.3 10.7 1.5 11.1 0.8 0.4 1.5 1.2 1.5 2 0 1 -1.5 1.4 -5.5 1.4 -4 0 -5.5 -0.4 -5.5 -1.4 0 -0.8 0.7 -1.6 1.5 -2 1.1 -0.4 1.5 -2 1.5 -5.6 0 -7.1 -2.3 -6.7 -5.1 1 -2.5 6.8 -4.5 9.2 -6 6.9 -0.5 -0.8 -1.9 -4 -3 -7.1 -2.7 -7.3 -4.9 -7.7 -4.9 -0.9 0 3.1 0.5 5.3 1.5 6.1 2.6 2.2 1.6 3 -3.5 3 -3.6 0 -5 -0.4 -5 -1.4z"/>
  <path d="M448.6 600.1 c-3.6 -4 0 -9.7 6.8 -10.8 3.7 -0.6 4 -1 3 -3.7 -0.8 -2.1 -4.1 -2 -5.2 0.1 -1.2 2.1 -4.2 1 -4.2 -1.5 0 -3.8 8.6 -5.5 12.8 -2.6 1.9 1.3 2.2 2.4 2.2 8.8 0 5.6 0.4 7.5 1.5 8 0.8 0.3 1.5 1.2 1.5 2 0 2.3 -16.3 2.1 -18.4 -0.3z m10.2 -5.3 c0.4 -3.2 -1.2 -3.6 -4.5 -1.3 -2.9 2.1 -1.9 4.7 1.6 4.3 2 -0.2 2.7 -0.9 2.9 -3z"/>
  <path d="M488 600.6 c0 -0.8 0.5 -1.6 1.2 -1.8 1.3 -0.5 1.6 -6.2 0.8 -13.3 -0.5 -3.6 -0.3 -4 1.9 -4.3 1.3 -0.2 2.7 0.2 3.1 0.9 0.6 0.9 1.2 0.8 2.5 -0.4 2.8 -2.8 5.5 -2.2 5.5 1.2 0 2.6 -0.4 3 -3.2 3.3 -3.3 0.3 -3.3 0.3 -3.6 6.6 -0.2 3.8 0.1 6.2 0.8 6.2 0.5 0 1 0.7 1 1.5 0 1.1 -1.2 1.5 -5 1.5 -3.6 0 -5 -0.4 -5 -1.4z"/>
  <path d="M537 600.5 c0 -0.8 0.7 -1.5 1.5 -1.5 1.2 0 1.5 -1.9 1.5 -11 0 -7.7 -0.4 -11 -1.2 -11 -0.6 0 -0.3 -0.9 0.7 -2 1.5 -1.7 3.1 -2 10.2 -2 8.1 0 8.3 0.1 8.3 2.4 0 1.3 0.3 3.1 0.6 4 0.4 1.1 0 1.6 -1.4 1.6 -1.1 0 -2.2 -0.8 -2.5 -2 -0.4 -1.6 -1.4 -2 -4.6 -2 l-4.1 0 0 4.5 c0 4.2 0.2 4.5 2.6 4.5 1.8 0 2.8 -0.6 3.1 -2 0.8 -3.1 2.8 -1.8 3.1 2.1 0.2 3.6 -1.5 7.4 -2.5 5.2 -0.2 -0.7 -1.8 -1.3 -3.4 -1.3 -2.7 0 -2.9 0.2 -2.9 4 0 2.7 0.5 4.3 1.5 4.6 0.8 0.4 1.5 1.2 1.5 2 0 1 -1.5 1.4 -6 1.4 -4.7 0 -6 -0.3 -6 -1.5z"/>
  <path d="M560 600.6 c0 -0.8 0.5 -1.8 1.1 -2.2 0.7 -0.4 0.9 -3.7 0.8 -8.8 l-0.4 -8.1 3.3 -0.3 3.2 -0.3 0 9.1 c0 5.8 0.4 8.9 1 8.5 0.6 -0.3 1 0.3 1 1.4 0 1.8 -0.6 2.1 -5 2.1 -3.7 0 -5 -0.4 -5 -1.4z"/>
  <path d="M572 601.1 c0 -0.5 0.7 -1.6 1.5 -2.5 1.6 -1.6 2 -10.6 0.6 -14.1 -1 -2.4 0.4 -4.5 2.9 -4.5 1 0 2 0.6 2.3 1.3 0.4 1 0.7 1 1.8 0 2 -2 7.3 -1.6 9.4 0.7 1.5 1.6 1.8 3.5 1.7 9.1 -0.2 5.4 0.1 7.1 1.3 7.5 0.8 0.4 1.5 1.2 1.5 2 0 1 -1.4 1.4 -5 1.4 -3.8 0 -5 -0.4 -5 -1.5 0 -0.8 0.5 -1.5 1 -1.5 1.5 0 1.2 -11.3 -0.3 -13.4 -1.1 -1.5 -1.7 -1.7 -3.5 -0.7 -1.9 1 -2.2 2 -2.2 7.6 0 3.7 0.4 6.5 1 6.5 0.6 0 1 0.7 1 1.5 0 1.1 -1.2 1.5 -5 1.5 -2.7 0 -5 -0.4 -5 -0.9z"/>
  <path d="M597.4 599.5 c-3.1 -4.8 1.5 -10.5 8.6 -10.5 2.1 0 2.4 -0.8 1.4 -3.4 -0.8 -2.1 -5.4 -2.1 -5.4 -0.1 0 1.9 -3.6 2 -4.3 0.1 -1 -2.5 1.8 -4.8 6.5 -5.3 6.8 -0.8 8.8 1.6 8.8 10.7 0 5.4 0.4 7.1 1.6 7.8 3.3 1.8 0.3 3 -7.6 3 -7.3 0 -8.2 -0.2 -9.6 -2.3z m10.2 -3 c0.4 -0.8 0.4 -2.2 0 -3 -0.8 -2.1 -5 -0.3 -5.4 2.4 -0.3 1.7 0.2 2.1 2.3 2.1 1.4 0 2.8 -0.7 3.1 -1.5z"/>
  <path d="M617 600.6 c0 -0.8 0.7 -1.6 1.5 -2 2.2 -0.8 2.2 -14.1 -0.1 -15 -0.8 -0.3 -1.2 -1 -0.9 -1.6 0.8 -1.3 7.5 -1.3 7.5 0.1 0 0.5 1 0.3 2.2 -0.5 3.3 -2.3 6.4 -1.9 8.7 1 1.7 2.1 2.1 4.1 2.1 9.5 0 3.9 0.4 6.9 1 6.9 0.6 0 1 0.7 1 1.5 0 1.1 -1.1 1.5 -4.3 1.5 l-4.3 0 0.1 -8.2 c0 -7.2 -0.2 -8.3 -1.8 -8.6 -3.3 -0.7 -4.7 1.7 -4.7 7.9 0 3.3 0.4 5.9 1 5.9 0.6 0 1 0.7 1 1.5 0 1.1 -1.2 1.5 -5 1.5 -3.6 0 -5 -0.4 -5 -1.4z"/>
  <path d="M693 600.6 c0 -0.8 0.5 -1.8 1 -2.1 1.5 -0.9 1.3 -21.2 -0.2 -21.8 -1 -0.3 -1 -0.7 0.1 -2 1.8 -2.2 11.6 -2.3 17 -0.1 5 2 7.1 5.2 7.7 11.7 0.7 6.5 -1.8 11.4 -6.7 13.9 -4.5 2.3 -18.9 2.6 -18.9 0.4z m16.9 -5 c2.8 -2.9 3.7 -8.7 2.1 -12.6 -1.5 -3.6 -3.7 -5 -7.9 -5 l-3.1 0 0 10 0 10 3.3 0 c2.2 0 4.1 -0.8 5.6 -2.4z"/>
  <path d="M722.6 600.1 c-3.8 -4.1 -0.5 -9.6 6.4 -10.7 2.2 -0.4 4 -1 4 -1.4 0 -3.9 -4.2 -5.4 -6.5 -2.3 -1.4 1.9 -3.5 0.9 -3.5 -1.7 0 -3.9 8.5 -5.5 12.8 -2.4 1.9 1.3 2.2 2.4 2.2 8.6 0 5.4 0.4 7.4 1.7 8.3 2.9 2.2 0.5 3.3 -7.6 3.3 -6.3 0 -8.3 -0.3 -9.5 -1.7z m9.8 -3.7 c1 -2.7 0.7 -3.4 -1.7 -3.4 -2.8 0 -4.7 1.7 -4 3.6 0.7 1.9 4.9 1.8 5.7 -0.2z"/>
  <path d="M745.6 599.8 c-1.1 -1.5 -1.6 -4.4 -1.6 -8.5 0 -4.9 -0.3 -6.3 -1.5 -6.3 -2.2 0 -1.8 -2.7 0.5 -4 1.1 -0.6 2 -2 2 -3 0 -1.5 0.7 -2 2.5 -2 2 0 2.5 0.5 2.5 2.5 0 2 0.5 2.5 2.6 2.5 3.3 0 3 3.3 -0.4 3.8 -2.1 0.3 -2.3 0.8 -2 6.5 0.3 5.6 0.5 6.2 2.6 6.5 3.9 0.6 2.3 3.6 -2 4 -2.8 0.2 -4 -0.2 -5.2 -2z"/>
  <path d="M758.1 600.7 c-0.6 -0.6 -1.1 -2.5 -1.1 -4.1 0 -2.4 0.8 -3.6 3.3 -5.3 1.8 -1.3 4.3 -2.3 5.6 -2.3 1.7 0 2.2 -0.5 1.9 -2.2 -0.4 -2.8 -3.7 -3.6 -5.4 -1.3 -1.6 2.2 -4.4 1.2 -4.4 -1.5 0 -3.7 8.6 -5.4 12.7 -2.5 1.6 1.2 2.2 2.9 2.8 9 0.4 4.1 1.1 7.5 1.6 7.5 0.5 0 0.9 0.9 0.9 1.9 0 1.7 -0.8 1.9 -8.4 1.9 -4.9 0.1 -8.8 -0.4 -9.5 -1.1z m9.7 -5.4 c0.3 -1.7 -0.2 -2.3 -1.6 -2.3 -2.4 0 -4.6 2.5 -3.7 4 1.2 1.9 5 0.7 5.3 -1.7z"/>
  <path d="M824 600.9 c0 -0.7 0.6 -1.7 1.4 -2.3 0.7 -0.6 3 -6.1 5.1 -12.3 3.8 -11 5.6 -13.4 9.8 -13.3 0.7 0 2.8 4.9 4.7 10.8 1.9 5.9 4.3 12.3 5.2 14.2 1 1.9 1.8 3.6 1.8 3.7 0 0.2 -2.5 0.3 -5.7 0.3 -5.5 0 -5.6 0 -3.9 -1.9 1.4 -1.6 1.5 -2.3 0.6 -4.1 -0.9 -1.8 -1.9 -2.1 -5.8 -1.8 -4 0.3 -4.7 0.6 -5 2.6 -0.2 1.2 0.1 2.2 0.7 2.2 0.6 0 1.1 0.7 1.1 1.5 0 1.1 -1.2 1.5 -5 1.5 -3.1 0 -5 -0.4 -5 -1.1z m16.6 -12.5 c-0.3 -0.9 -0.9 -2.7 -1.2 -4 -0.9 -3.3 -2.5 -2.6 -4 1.9 l-1.3 3.7 3.6 0 c2.8 0 3.4 -0.3 2.9 -1.6z"/>
  <path d="M853 600.5 c0 -0.8 0.5 -1.5 1 -1.5 0.6 0 1 -3.2 1 -7.5 0 -4.9 -0.4 -7.5 -1.1 -7.5 -0.8 0 -0.7 -0.5 0.2 -1.6 0.9 -1.2 2.4 -1.5 5.1 -1.1 2.1 0.3 4.1 0.1 4.4 -0.4 0.3 -0.5 1.8 -0.9 3.4 -0.9 4.7 0 7 3.9 7 12.1 0 3.9 0.4 6.9 1 6.9 0.6 0 1 0.7 1 1.5 0 1.1 -1.1 1.5 -4.3 1.5 l-4.3 0 0.1 -8.2 c0 -7.2 -0.2 -8.3 -1.8 -8.6 -3.3 -0.7 -4.7 1.7 -4.7 7.9 0 3.3 0.4 5.9 1 5.9 0.6 0 1 0.7 1 1.5 0 1.1 -1.2 1.5 -5 1.5 -3.8 0 -5 -0.4 -5 -1.5z"/>
  <path d="M879.1 600.7 c-1.8 -1.8 -1.3 -7.2 0.8 -9.1 1 -0.9 3.5 -2 5.5 -2.3 3 -0.5 3.6 -1 3.4 -2.7 -0.4 -2.7 -3.8 -3.3 -5.4 -1.1 -1.6 2.2 -4.4 1.2 -4.4 -1.5 0 -3.9 9 -5.4 13.1 -2.1 1.9 1.6 2.4 3 2.7 9 0.2 3.9 0.8 7.1 1.3 7.1 0.5 0 0.9 0.9 0.9 1.9 0 1.7 -0.8 1.9 -8.4 1.9 -4.9 0.1 -8.8 -0.4 -9.5 -1.1z m8.7 -2.9 c1.1 -1.1 1.7 -5.8 0.8 -5.8 -1.9 0 -5.6 2.2 -5.6 3.3 0 1.3 1.9 3.7 3 3.7 0.3 0 1.1 -0.5 1.8 -1.2z"/>
  <path d="M898.4 600.9 c-0.4 -0.7 0.1 -1.6 1 -2.1 2.4 -1.3 2.4 -23.3 0 -24.2 -2.5 -1 0.2 -3.6 3.7 -3.6 3.4 0 3.3 -0.1 2.9 16.7 -0.2 8.7 0 10.4 1.4 10.9 0.9 0.3 1.6 1.2 1.6 2 0 1.7 -9.5 2 -10.6 0.3z"/>
  <path d="M932.7 601.3 c-1.1 -1 -0.8 -5.1 0.4 -5.8 0.6 -0.4 1.7 0.3 2.6 1.4 1.7 2.5 5.6 2.5 6.1 0 0.2 -1 -0.8 -2.1 -2.6 -2.8 -7.1 -2.9 -9.6 -9.3 -5 -12.5 4.2 -3 11.8 -1.7 11.8 2 0 3 -2 4.2 -3.5 2.1 -1.6 -2.2 -5.5 -2.2 -5.5 -0.1 0 0.8 1.5 2.1 3.4 2.9 4.7 2 6.6 4.1 6.6 7.4 0 4.1 -2.8 6.1 -8.7 6.1 -2.7 0 -5.3 -0.3 -5.6 -0.7z"/>
  <path d="M949 601.1 c0 -0.5 0.7 -1.4 1.5 -2.1 1.8 -1.5 2.1 -13.5 0.5 -14.5 -1.7 -1.1 0.9 -3.5 3.6 -3.5 2.3 0 2.4 0.2 2.4 9 0 7.3 0.3 9 1.5 9 0.8 0 1.5 0.7 1.5 1.5 0 1.2 -1.3 1.5 -5.5 1.5 -3 0 -5.5 -0.4 -5.5 -0.9z"/>
  <path d="M562.1 575.6 c-1.8 -2.2 -0.2 -4.8 2.8 -4.4 2 0.2 2.7 0.9 2.9 3.1 0.3 2.3 0 2.7 -2.1 2.7 -1.4 0 -3 -0.6 -3.6 -1.4z"/>
  <path d="M951.4 575.6 c-1 -2.6 0.4 -4.8 2.8 -4.4 1.7 0.2 2.3 1 2.3 2.8 0 1.8 -0.6 2.6 -2.3 2.8 -1.3 0.2 -2.5 -0.3 -2.8 -1.2z"/>
  <path d="M360.7 545.3 c-0.4 -0.3 -0.7 -14.5 -0.7 -31.5 l0 -30.8 8.5 0 c7.2 0 8.6 0.3 9.4 1.9 0.6 1 3.8 9.2 7.1 18.2 8.6 23.1 8.2 22.3 9.1 20.7 0.4 -0.8 3.7 -9.5 7.3 -19.3 3.5 -9.9 6.8 -18.8 7.1 -19.7 0.6 -1.5 2.1 -1.8 9.6 -1.8 l8.9 0 -0.2 31.3 -0.3 31.2 -6 0 -6 0 -0.3 -18.7 c-0.2 -17.4 -1 -22.2 -2.7 -16.5 -0.4 1.2 -3.4 9.5 -6.7 18.5 l-6 16.2 -5.3 0 -5.2 0 -6.4 -17.2 c-3.6 -9.4 -7 -17.3 -7.7 -17.6 -0.9 -0.3 -1.2 4 -1.2 17.7 l0 18.1 -5.8 0 c-3.2 0 -6.2 -0.3 -6.5 -0.7z"/>
  <path d="M433.7 545.4 c-0.3 -0.3 1.9 -7.6 5 -16.3 3 -8.6 7.7 -22.2 10.5 -30.3 5.6 -16.7 5.2 -16.3 16.7 -15.6 l5.4 0.3 2.3 6.5 c1.3 3.6 5.9 16.6 10.3 29 4.4 12.4 8.3 23.3 8.6 24.3 0.6 1.5 0 1.7 -6.3 1.7 l-7.1 0 -2 -5.5 c-1.2 -3.1 -2.1 -6 -2.1 -6.5 0 -0.6 -4.9 -1 -11.8 -1 l-11.8 0 -2.3 7 -2.2 7 -6.3 0 c-3.4 0 -6.5 -0.3 -6.9 -0.6z m36.3 -25.1 c0.1 -1.6 -6.5 -21.3 -7.1 -21.3 -0.7 0 -6.9 18.9 -6.9 20.9 0 1.2 14 1.6 14 0.4z"/>
  <path d="M516 545.1 c-14.3 -4.4 -20.7 -15.4 -19.8 -33.7 0.6 -11 2.9 -16.6 9.3 -22.2 5.3 -4.7 10 -6.2 19 -6.2 9.3 0 14.2 1.7 19.1 6.5 3.5 3.5 7.4 11.3 7.4 14.7 0 0.4 -3.1 0.8 -7 0.8 -5.7 0 -7 -0.3 -7 -1.6 0 -2.6 -3.7 -7 -7 -8.4 -3.8 -1.6 -10.5 -0.8 -13.9 1.7 -4.5 3.3 -6.5 8.8 -6.5 17.8 0.1 13.5 4.7 19.5 15.2 19.5 5.5 0 9.2 -2.2 11.7 -7.1 1.5 -2.7 1.9 -2.9 8 -2.9 3.6 0 6.5 0.4 6.5 0.8 0 0.5 -0.7 2.9 -1.6 5.5 -1.9 5.7 -9.3 12.8 -15.2 14.5 -4.3 1.3 -14.3 1.5 -18.2 0.3z"/>
  <path d="M559 514.4 l0 -31.6 15.8 0.4 c14.6 0.3 16.1 0.5 20.7 2.9 6.7 3.4 9.5 8.2 9.5 16.7 0 7.7 -1.7 12.1 -6.3 15.8 l-3.5 2.8 3.3 6.6 c1.9 3.7 4.7 9 6.4 11.9 2.6 4.4 2.8 5.3 1.5 5.8 -2.1 0.8 -12.3 -0.3 -13.7 -1.6 -0.7 -0.5 -3.4 -5.5 -6.2 -11 l-4.9 -10.1 -4.8 0 -4.8 0 0 11.5 0 11.5 -6.5 0 -6.5 0 0 -31.6z m30.5 -4.9 c3.4 -3.3 3.4 -8.7 0 -12.1 -2.3 -2.3 -3.1 -2.5 -9.7 -2.2 l-7.3 0.3 -0.3 8.3 -0.3 8.2 7.6 0 c6.7 0 7.9 -0.3 10 -2.5z"/>
  <path d="M629.6 544 c-10.1 -4 -16.3 -13.5 -17.3 -26.2 -1.1 -14.4 3.5 -25.4 13.1 -31.2 4.3 -2.7 5.9 -3.1 14.5 -3.4 8.9 -0.3 10 -0.2 15.1 2.5 9.9 5.1 15 14.9 15 28.8 0 13.6 -4.6 22.8 -14.1 27.9 -7.2 4 -18.8 4.7 -26.3 1.6z m20.4 -12.6 c5 -4.3 6.4 -7.9 6.4 -16.9 0 -13 -4.5 -19.4 -14.2 -20.2 -10.3 -0.9 -16.2 6.3 -16.2 19.7 0.1 13.5 5.1 20 15.7 20 4.1 0 5.8 -0.5 8.3 -2.6z"/>
  <path d="M695.6 544.5 c-13.8 -4.9 -21.6 -23.2 -17.2 -40.3 3.2 -12.8 10.8 -19.6 23.6 -21.3 12.6 -1.8 23 3.2 27.9 13.5 3.4 6.9 3 7.6 -3.8 7.6 -5.7 0 -6 -0.1 -7.9 -3.4 -2.9 -4.9 -6.6 -7 -12.3 -7 -9.6 0 -15.1 7.8 -15.1 21 0.1 9.4 2.8 15.7 8.2 18.5 6.8 3.7 15.5 1.6 19.1 -4.6 2.1 -3.4 2.2 -3.5 8.4 -3.5 l6.4 0 -1.5 4.3 c-2 6 -6.7 11.3 -12.5 14.2 -3.9 2 -6.3 2.5 -12.1 2.5 -4 -0.1 -9 -0.7 -11.2 -1.5z"/>
  <path d="M740.6 515.5 c-0.4 -16.8 -0.4 -31 -0.1 -31.5 0.3 -0.6 3.1 -1 6 -1 l5.5 0 0.2 25.8 0.3 25.7 13.8 0.3 13.8 0.3 -0.3 5.2 -0.3 5.2 -19.1 0.3 -19.1 0.2 -0.7 -30.5z"/>
  <path d="M783.8 545.5 c-0.3 -0.3 1.9 -7.2 4.9 -15.3 2.9 -8.1 7.9 -21.7 10.9 -30.2 3 -8.5 6.1 -15.8 6.7 -16.2 0.7 -0.4 3.7 -0.8 6.8 -0.8 l5.6 0 11.7 30.9 c6.4 17 11.6 31.2 11.6 31.5 0 0.3 -2.9 0.6 -6.4 0.6 l-6.4 0 -2.4 -7.2 -2.5 -7.3 -11.3 -0.3 c-12.8 -0.3 -11.9 -0.8 -15.1 8.6 l-2.1 6.2 -5.7 0 c-3.2 0 -6 -0.2 -6.3 -0.5z m35.4 -25.1 c0.4 -0.3 -1 -5.3 -2.9 -11.1 -1.9 -5.7 -3.9 -10.1 -4.3 -9.6 -0.7 0.8 -7 19.3 -7 20.6 0 0.8 13.4 1 14.2 0.1z"/>
  <path d="M848 514.4 l0 -31.6 15.3 0.4 c16.1 0.4 20.5 1.6 25 6.6 6.6 7.3 5.9 20.4 -1.4 27.4 -2.1 2.1 -3.9 4 -3.9 4.3 0 0.3 2.7 5.5 6 11.7 3.3 6.1 6 11.5 6 12 0 1 -11.1 1.1 -12.5 0 -0.6 -0.4 -2.8 -4.1 -4.9 -8.2 -7.3 -14.2 -7.1 -14 -12.7 -14 l-4.9 0 0 11.5 0 11.5 -6 0 -6 0 0 -31.6z m29.8 -4.7 c1.2 -1.3 2.4 -3.6 2.7 -5.2 1.2 -6.3 -3.9 -10.3 -13.2 -10.4 -7.1 -0.1 -7.3 0.1 -7.3 9.5 l0 8.4 7.8 0 c6.9 0 8.1 -0.3 10 -2.3z"/>
  <path d="M902 514.5 l0 -31.5 6 0 6 0 0 31.5 0 31.5 -6 0 -6 0 0 -31.5z"/>
  <path d="M940.7 545.4 c-0.4 -0.4 -0.7 -12.1 -0.7 -26.1 l0 -25.3 -9 0 -9 0 0 -5.5 0 -5.5 24 0 24 0 0 5.5 0 5.5 -8.4 0 -8.4 0 -0.7 3.8 c-0.4 2 -0.5 13.6 -0.4 25.7 l0.4 22 -5.5 0.3 c-3.1 0.2 -5.9 0 -6.3 -0.4z"/>
  <path d="M995.7 545.3 c-0.4 -0.3 -0.7 -5.6 -0.7 -11.7 l0 -11.1 -4.4 -8 c-2.4 -4.4 -7.1 -12.9 -10.5 -19 -3.3 -6 -6.1 -11.3 -6.1 -11.7 0 -0.5 2.8 -0.8 6.3 -0.8 l6.3 0 6.9 13 c3.9 7.1 7.2 13 7.5 13 0.3 0 3.6 -5.9 7.3 -13 l6.8 -13 6.9 0 6.8 0 -10.9 19.6 -10.9 19.7 0 11.8 0 11.9 -5.3 0 c-3 0 -5.7 -0.3 -6 -0.7z"/>
  <path d="M682.8 434.8 c-59.8 -39.4 -75.7 -50.1 -75.2 -50.9 1.6 -2.6 44.9 -36.9 46 -36.5 0.7 0.3 10.6 6.6 21.8 14.1 l20.6 13.6 5.7 -4.4 c15.5 -12 43.5 -40.5 53.6 -54.4 2.9 -4 5.7 -7.2 6.3 -7.3 0.6 0 6.5 4.2 13 9.3 6.5 5.1 12.5 9.6 13.2 10.1 0.9 0.6 1.2 -10.3 1.2 -52.8 0 -47 -0.2 -53.6 -1.5 -53.6 -0.9 0 -1.5 -0.9 -1.5 -2.4 0 -2 4.4 -6.4 20.7 -20.8 11.5 -10.1 23.9 -21.3 27.8 -24.9 6.2 -5.9 7.3 -6.5 9.3 -5.6 l2.2 1 0 87.2 0 87.3 -19.2 12.7 c-57.7 37.9 -118.2 77.7 -124.5 81.8 l-7.2 4.6 -12.3 -8.1z"/>
  <path d="M550.3 347.9 l-6.3 -4.1 0 -86.6 0 -86.7 28.7 -16.9 c23.7 -13.9 28.9 -16.7 30.4 -15.8 3.1 1.9 81.4 67.4 81.7 68.4 0.2 0.5 -0.7 1.7 -2 2.7 -1.2 1.1 -10.8 9.1 -21.3 18 -10.4 8.8 -19.5 16.1 -20.1 16.1 -1 0 -11.5 -8.6 -34.3 -27.8 l-5.1 -4.4 0 40.7 0 40.7 2.5 -1.6 2.5 -1.6 0 3.5 c0 1.9 -0.5 3.5 -1 3.5 -0.6 0 -5.9 4.4 -11.9 9.8 -5.9 5.3 -17.7 15.7 -26.1 23.1 l-15.3 13.5 2.7 2.1 c2.4 1.9 3.8 7.6 1.9 7.4 -0.5 0 -3.6 -1.8 -7 -4z"/>
 </g>
 <g fill="#0e3a67">
  <path d="M859.4 526 c0.1 -3.1 0.4 -3.5 2.9 -3.6 2.4 -0.1 2.4 -0.1 0.3 0.3 -1.9 0.3 -2.6 1.2 -2.9 3.6 -0.4 3.1 -0.4 3.1 -0.3 -0.3z"/>
  <path d="M576.1 364.4 c-10.7 -6.9 -20.4 -13.5 -21.6 -14.7 -1.1 -1.2 -3.4 -3.2 -5.1 -4.3 l-2.9 -2.2 3 -3.2 c1.7 -1.7 9.3 -8.6 16.9 -15.3 24.3 -21.3 35.4 -31.5 34.8 -32.2 -0.4 -0.3 0.2 -0.3 1.3 0.1 1.1 0.4 1.7 0.4 1.3 0 -0.5 -0.7 22.9 -21 49.5 -43.1 13.8 -11.4 23.8 -19.7 59.4 -49.5 47.1 -39.5 72.3 -60.4 75 -62 1.7 -1.1 3.8 -0.1 17.9 8.2 8.7 5.3 21.2 12.6 27.8 16.4 l11.9 6.8 -7.4 7.1 c-4.1 3.8 -16.7 15.3 -28.1 25.3 -11.5 10.1 -20.8 18.7 -20.8 19.3 0 0.5 -0.8 0.9 -1.7 0.9 -1.6 0 -87.6 41.3 -89.6 43 -0.4 0.3 3.8 3.6 9.4 7.2 l10 6.6 -6.8 5.5 c-3.7 3.1 -24.3 19.8 -45.8 37.2 -21.4 17.4 -45.6 37 -53.7 43.6 -8.1 6.5 -14.8 11.9 -15 11.9 -0.2 0 -9 -5.7 -19.7 -12.6z"/>
 </g>
</svg>